<?xml version="1.0" encoding="UTF-8" standalone="no"?>
<!-- Created with Inkscape (http://www.inkscape.org/) -->

<svg
   width="210mm"
   height="297mm"
   viewBox="0 0 210 297"
   version="1.1"
   id="svg5"
   inkscape:version="1.1.2 (0a00cf5339, 2022-02-04)"
   sodipodi:docname="Logo ritz completo.svg"
   xmlns:inkscape="http://www.inkscape.org/namespaces/inkscape"
   xmlns:sodipodi="http://sodipodi.sourceforge.net/DTD/sodipodi-0.dtd"
   xmlns="http://www.w3.org/2000/svg"
   xmlns:svg="http://www.w3.org/2000/svg">
  <sodipodi:namedview
     id="namedview7"
     pagecolor="#505050"
     bordercolor="#ffffff"
     borderopacity="1"
     inkscape:pageshadow="0"
     inkscape:pageopacity="0"
     inkscape:pagecheckerboard="1"
     inkscape:document-units="mm"
     showgrid="false"
     inkscape:zoom="0.25575084"
     inkscape:cx="-975.55886"
     inkscape:cy="43.010611"
     inkscape:window-width="1920"
     inkscape:window-height="999"
     inkscape:window-x="0"
     inkscape:window-y="0"
     inkscape:window-maximized="1"
     inkscape:current-layer="layer1" />
  <defs
     id="defs2" />
  <g
     inkscape:label="Capa 1"
     inkscape:groupmode="layer"
     id="layer1">
    <g
       transform="matrix(0.13227513,0,0,-0.13252828,1.779424,318.51209)"
       fill="#000000"
       stroke="none"
       id="g928"
       style="fill:#000000">
      <path
         d="M 580,2350 C 421.7226,2336.2558 431.32816,2222.528 268,2186 l -71.38659,-102.5136 c -14.89852,-157.6413 81.63675,-206.578 155.91584,-267.5988 81.88772,-95.019 275.20872,-185.9865 473,-167 121.88462,11.7 185.08225,27.2032 316.54995,111.7424 75.9747,48.8549 94.6462,128.2417 123.1552,168.1194 39.0558,68.8434 60.6518,100.012 59.1959,76.9367 -79.6622,-160.4578 -39.3767,-183.4907 -69.5752,-264.4579 -21.0936,-53.5683 -110.0327,-206.4968 -66.0185,-167.5197 38,34 73.1634,43.2915 104.1634,154.2915 15,50 40,119 57,152 48,95 96,104 85,15 -9,-78 -24,-251 -31,-358 -7,-121 -7,-120 -89,-132 -45,-6 -183,-43 -229,-61 -17,-6 -18,-4 -13,22 5,28 3,31 -36,41 -23,7 -69,14 -102,17 -73,6 -137,27 -315,100 -74,30 -200,76 -280,101 -160,51 -220,74 -220,85 0,10 54,83 74,99 12,10 22,12 30,5 7,-5 44,-33 82,-61 93,-71 207,-129 290,-149 91,-21 290,-21 364,-1 30,9 84,29 120,45 36,17 68,28 73,25 19.1819,-21.6424 19.4893,-23.1281 18.9792,-48.1229 -1.8745,-91.843 21.908,-39.9225 34.908,11.0775 19,69 12.3116,70.7455 19.1451,117.8167 0.8741,51.2622 33.5703,53.6595 -86.0323,-19.7713 -152,-95 -280,-126 -442,-105 -166,21 -295,87 -432,219 -102.0296,99.5102 -81.39943,87.7148 -86,37 -4.86559,-40.6639 4.01786,-93.7079 -168.074498,-224.3793 L 97,1644 c 207.36793,-70.9843 278.40404,-201.0208 494.60242,-241.3365 99.88077,-27.0534 191.31367,-22.1063 301.53669,-36.1573 95.7099,-10.0443 72.42739,0.251 17.26359,-26.1667 C 825.08439,1300.3622 742.60781,1212.1659 748,1169 l 5,-242 c -7.51745,-322.64898 7.68668,-285.56616 63,-512 32.29877,-80.13984 69.72954,-188.58664 73,-175 16.64463,69.14769 15,68 -12,160 -66,227 -86,403 -72,642 l 7,127 71,-55 c 126.805,-104.951 259.2082,-118.02423 247,-109 -59.1625,44.638 -148.11779,228.4479 -91,270 68.8094,49.4103 235.1884,71.3725 348,91 95.9778,13.7164 56.809,-2.3417 63,88 0,137 30,436 56,569 l 6,28 -71,-36 c -39,-19 -71.4366,-51.0128 -71.4366,-46.0128 0,4 33.8097,63.5795 38.8027,133.3579 C 1406.3197,2176.3008 1448,2235 1446,2237 c -129.4928,-46.5126 -158.4798,17.206 -263,19 -6.7169,-44.5951 55.148,-97.6304 52.4135,-130.1969 -10.8347,-57.0959 3.6247,-44.9415 43.3996,-9.3883 7.4773,-41.3556 -33.5384,-44.808 -224.8236,-171.0622 C 869.12688,1848.8777 933.27038,1846.2561 677.66003,1827.2846 516.66217,1825.0605 537.97516,1843.207 620,1865 c 116.05236,19.3667 283.18054,13.2943 137,67 -62.46498,20.8188 -145.78411,33.579 -175,83 -12.6194,6.9694 -19.80169,92.4647 -17.35326,109.1693 -2.6381,19.9759 7.88146,9.5181 -17.30256,76.4989 -9.15936,88.7531 -43.42727,46.7029 -48.42727,-56.2971 -4,-74 6.12024,-87.3711 29.12024,-126.3711 14,-24 35.23013,-57.4492 52.23013,-70.4492 17,-12 35.62559,-21.6138 35.62559,-25.6138 C 615.89287,1912.937 433,1850 409,1850 c -9,0 -23,8 -31,18 -20,22 -54,132 -63,204 -7,52 -5,59 17,80 40,37 172,126 212,143 58,24 88,7 70,-39 -8,-21 -31.51359,-3.3367 -55.51359,18.6633 -20,16 -27.90615,-32.4536 -20.90615,-56.4536 3,-14 29.41974,-22.2097 38.41974,-58.2097 32,-135 33,-139 67,-157 86,-44 247,-66 318,-42 50,17 67,36 75,84 12,83 -31.5916,96.6501 -210.59156,125.6501 C 694.40844,2191.6501 640,2217 640,2230 c -3.44936,45.2794 59.46293,50.9799 45,110 -51.99107,14.633 -55,16 -105,10 z m 145,-183 c 33,-9 87,-19 120,-22 85,-9 123,-23 142,-51 14,-22 14,-26 -2,-50 -20,-31 -72,-54 -122,-54 -46,0 -178,34 -198,50 -11,9 -65,156 -65,176 0,3 15,-3 33,-14 17,-11 59,-27 92,-35 z m 632,-9 c 6,-8 7,-25 1,-45 -9,-35 -28,-45 -28,-15 0,9 -7,26 -15,36 -8,10 -12,23 -9,27 8,13 40,11 51,-3 z m -187,-226 c 0,-25 -187,-177 -259,-210 -65,-30 -135,-27 -226,11 -67,29 -68,28 59,57 84,19 310,103 366,135 27,16 60,20 60,7 z M 975,1259 c -16,-29 -35,-35 -42,-12 -3,9 37,40 55,43 1,0 -5,-14 -13,-31 z m -15,-79 c 18,-18 29,-70 14,-70 -10,0 -94,63 -94,70 0,27 53,27 80,0 z"
         id="path918"
         style="fill:#000000"
         sodipodi:nodetypes="ccccsscccccccccccccccscccccccsccccccccccccccscccccccccccscccccccccccccccsscccccccccccccccccccscsccccssccsccccsccccssss" />
      <path
         d="m 798,2341 c -66,-21 -149.53203,-88.6949 -134.53203,-111.6949 3,-5 42.67456,-16.6313 69.28547,-19.6877 36.7691,-2.4027 55.89563,-0.6478 67.24656,34.3826 11.13776,25.9003 48.13873,33.1712 71.3066,44.1091 50,15 81.6934,-5.1091 134.6934,-59.1091 39.3462,-39.5829 46.4485,-39 -11,-39 l -98.03228,-9.7017 C 985.28487,2173.1243 1052.9596,2131.9265 1068,2060 c 8,-60 6,-60 8,-60 19,0 118,68 126,86 25,54 -68,185 -165,236 -46,24 -189,35 -239,19 z m 301,-115 c 34,-31 62,-96 50,-118 -5,-10 -14,-18 -19,-18 -13,0 -72,95 -94,149 l -17,44 28,-18 c 15,-10 39,-27 52,-39 z"
         id="path920"
         style="fill:#000000"
         sodipodi:nodetypes="cccccccccscccccscccc" />
      <path
         d="m 905.75383,2277.5484 c -92.76796,0.1022 -170.52648,-107.2377 2.93041,-81.569 89.23192,13.2048 163.36836,-18.3428 75.96687,32.6706 -13.58528,7.9293 -38.631,47.7952 -78.89728,48.8984 z"
         id="path922"
         style="fill:#000000"
         sodipodi:nodetypes="cssc" />
      <path
         d="m 230,1526 c 83.03074,-124.2249 73.12282,-265.564 23.79164,-383.0315 C 359.33031,1079.261 401.60171,1123.8936 475,1145 c 95.91563,32.377 165.50229,-7.8025 241,88 35.45409,47.2468 84.27657,69.4621 127,93 114.54257,57.1078 23.71783,-25.6865 -313,51 -93,34 -189,82 -275,139 -14,9 -25,13 -25,10 z m 224,-170 c 50,-19 124,-39 164,-46 39,-6 72,-15 72,-19 0,-4 -16,-22 -35,-41 -29,-28 -46,-35 -112,-46 -43,-7 -104,-13 -136,-13 -54,-1 -58,1 -68,27 -11,26 -6,143 6,162 8,14 6,14 109,-24 z"
         id="path924"
         style="fill:#000000"
         sodipodi:nodetypes="ccccccccccscccccc" />
      <path
         d="m 149,932 c 28,-55 56.96409,-113.7542 181,-160 257.11269,-92.95105 376,-189 387,-178 2,2 -0.85191,60.41392 6,128 -0.5475,123.96212 -0.95342,124.42388 -31,190 -77.82094,128.7582 -185.62409,225.245 -157,136 12,-38 36.4821,-173.02623 42.19194,-101.32564 C 578.5389,963.58855 673,867 689,817 704,773 696,709 671,679 655,659 654,659 482,745 299,837 218,897 185,966 c -23,49 -12,57 77,56 78,-2 164,-20 236,-52 48,-22 111.78156,-91.8483 46,7 -116.88607,122.9059 -355.53618,47.7486 -405.25247,108.0623 C 81.924291,1164.2256 116.6973,983.32408 149,932 Z"
         id="path926"
         style="fill:#000000"
         sodipodi:nodetypes="ccscccsccccccccc" />
    </g>
    <path
       style="fill:#000000;stroke-width:0.62609"
       d="m 97.20214,93.807897 c -5.625009,-1.582273 -15.958845,-5.8498 -16.536668,-6.829087 -0.556099,-0.942462 1.849844,-1.842064 11.160359,-4.172955 10.887429,-2.725671 16.318759,-4.45247 29.378449,-9.340369 12.40113,-4.641425 24.15077,-9.609782 30.16041,-12.753389 5.43652,-2.843829 9.41609,-4.084644 10.69533,-3.334786 1.91895,1.124837 -3.92496,7.427504 -17.45884,18.829378 -9.02263,7.601296 -20.10083,15.181429 -24.94318,17.067126 -6.16015,2.398869 -15.07294,2.610846 -22.45586,0.534082 z"
       id="path1364" />
    <path
       style="fill:#000000;stroke-width:1.95503"
       d="m 417.56307,207.73186 c -13.38469,-2.17179 -55.45923,-13.6804 -66.03929,-17.91306 -11.8958,-4.75904 -12.08277,-5.88411 -20.8207,-19.73792 -11.2059,-17.76672 -27.86897,-76.182706 -26.24269,-77.808989 0.66732,-0.667317 12.38715,3.994016 19.61463,7.853519 23.98899,12.8102 59.09655,21.48383 103.87885,27.26097 43.38748,5.5972 62.97171,11.92372 74.95095,23.90296 10.05865,10.05864 6.26148,22.2315 -1.09057,33.05102 -11.4081,16.78853 -38.57984,25.61444 -64.84399,25.14657 -8.22004,-0.14643 -16.71902,-1.31889 -19.40719,-1.75507 z"
       id="path1442"
       transform="scale(0.26458333)"
       sodipodi:nodetypes="ssssssssss" />
    <path
       style="fill:#000000;stroke-width:0.709692"
       d="m 148.18903,38.737565 c -2.05062,-2.677954 -5.18917,-7.127815 -6.97456,-9.888584 -3.30087,-5.104158 -8.40615,-15.532928 -7.84844,-16.032349 0.59909,-0.536489 12.60873,7.668971 15.44903,10.555395 6.09091,6.18981 9.54963,15.219622 7.10786,18.556803 -2.03439,2.780421 -3.6816,2.100727 -7.73389,-3.191265 z"
       id="path1481" />
    <path
       style="fill:#000000;stroke-width:0.661889"
       d="m 177.37292,41.902412 c -0.24882,-1.364214 -1.32517,-4.038531 -2.39189,-5.942921 -2.37702,-4.243598 -2.39149,-4.66658 -0.18827,-5.503106 2.53765,-0.963504 6.09683,0.356941 6.95815,2.581449 1.1437,2.953852 -1.35221,11.344973 -3.37453,11.344973 -0.30309,0 -0.75465,-1.116177 -1.00346,-2.480395 z"
       id="path1520" />
    <path
       style="fill:none;stroke:#000000;stroke-width:0.264583px;stroke-linecap:butt;stroke-linejoin:miter;stroke-opacity:1"
       d="m 74.566175,17.931772 c 0.866492,6.605751 -1.46026,6.995092 -0.861724,12.304738"
       id="path1594"
       sodipodi:nodetypes="cc" />
    <path
       style="fill:#000000;stroke-width:0.244378"
       d="m 190.33573,267.65997 c -3.31361,-7.22612 -10.38246,-25.51041 -15.72792,-43.54167 -6.48256,-21.86695 -10.43871,-41.62408 -12.78848,-60.36475 -1.21883,-9.72083 -1.24836,-13.84657 -1.11733,-18.74711 0.22088,-8.26062 2.42078,-15.32881 9.57699,-22.33619 9.63064,-9.43037 32.78436,-22.994941 60.98447,-41.722028 24.15535,-16.04105 40.41416,-24.973281 49.65829,-28.467036 14.71376,-5.560961 27.17389,-6.550249 32.46033,-1.116256 3.94458,4.054688 5.53054,13.740279 2.05044,22.641238 -1.79672,4.595418 -4.01113,7.275704 -6.99391,8.039856 -1.32959,0.340625 -3.15953,0.475055 -4.75003,0.143421 -0.97468,-0.203225 -2.60012,-0.650919 -3.43078,-1.039632 -2.70599,-1.266284 -4.97603,-2.442754 -11.75311,-8.047121 -3.74836,-3.099743 -5.34782,-5.898612 -6.12112,-5.898612 -1.08978,0 -0.8381,0.366075 -0.53096,2.555203 0.15049,1.072562 0.30225,4.770264 0.3079,8.130468 0.0118,7.011502 -0.24647,7.953859 -2.32445,16.625148 -0.72472,3.024183 -1.7283,7.702231 -1.77103,8.105451 -0.0427,0.40323 -0.6309,-2.73967 -0.87229,-4.419772 -1.13376,-7.890827 -2.44958,-14.783215 -3.91353,-16.973746 -0.65353,-0.977885 -0.94518,-1.207044 -1.61818,-1.271454 -1.08589,-0.103927 -1.72422,0.515601 -2.6899,2.610653 -2.93315,6.363555 -4.9858,22.029759 -6.55243,50.009289 -0.52752,9.42151 -0.60867,29.07824 -0.13467,32.62453 1.17104,8.7614 3.54034,15.23328 9.22129,25.18851 7.97751,13.97968 20.41365,28.90216 30.17991,36.21376 4.32412,3.23729 7.19963,5.65115 10.09984,8.47837 2.52454,2.46099 4.80724,5.26005 4.80724,5.89464 0,0.87306 -3.45433,9.40103 -10.85687,12.44389 -10.04769,4.13015 -24.39234,15.57769 -42.30453,14.19306 l -12.87395,-0.99517 -26.69547,13.43147 -28.5511,-1.53998 z"
       id="path3172"
       transform="scale(0.26458333)"
       sodipodi:nodetypes="sssssssssssssssssssssssssssssscccs" />
    <path
       style="fill:#000000;stroke-width:0.977514"
       d="m 205.27792,274.7832 c -2.15053,-0.99566 -5.20203,-3.18541 -6.78111,-4.8661 l -2.87104,-3.05581 25.84262,0.0892 25.84263,0.0892 -5.86509,1.89256 c -9.21682,2.9741 -27.77259,7.70644 -30.12461,7.68277 -1.17334,-0.0118 -3.89287,-0.8361 -6.0434,-1.83176 z"
       id="path3211"
       transform="scale(0.26458333)" />
    <path
       style="fill:#000000;stroke-width:0.977514"
       d="m 184.18358,611.03875 c -6.14533,-1.56976 -7.48021,-7.80269 -10.42395,-14.10469 -3.89566,-8.3399 -4.60358,-21.93097 -3.8115,-43.21217 0.61329,-16.47782 1.50936,-34.54762 3.52795,-40.68835 1.32155,-4.02024 6.77494,-10.65538 9.65873,-10.01551 4.74363,1.05255 25.46207,8.8464 46.45611,16.52934 35.22903,12.89234 57.27192,15.29217 89.77549,21.55147 20.74123,3.99419 43.51668,14.60895 43.51668,16.43616 0,1.54088 -14.67489,18.21434 -23.17164,27.03657 -6.38278,6.62728 -18.46749,14.65169 -24.3986,17.6636 -13.77617,6.99575 -66.33742,8.61342 -104.87524,9.55095 -10.85836,0.26415 -24.13262,-0.2055 -26.25403,-0.74737 z"
       id="path3924"
       transform="scale(0.26458333)"
       sodipodi:nodetypes="ssssssssssss" />
    <path
       style="fill:#000000;stroke-width:0.308368"
       d="m 129.45826,172.54014 c -4.06025,-2.73347 -11.8351,-9.67946 -11.8351,-10.57338 0,-1.01909 1.14294,-2.27567 2.42167,-2.66247 3.27738,-0.99134 7.79183,0.85147 9.84368,4.01822 2.14468,3.31002 3.24829,9.95246 1.70866,10.28414 -0.23114,0.0498 -1.19365,-0.43014 -2.13891,-1.06651 z"
       id="path4000" />
    <path
       style="fill:#000000;stroke-width:0.341544"
       d="m 125.16,155.12496 c -1.16878,-1.30466 -1.0756,-2.00209 0.48986,-3.66682 1.60581,-1.70763 4.77181,-3.95069 6.67848,-4.73158 0.65408,-0.26789 1.18923,-0.42409 1.18923,-0.34712 0,0.47663 -2.84016,5.98731 -3.57787,6.94205 -1.71653,2.22152 -3.72597,2.97972 -4.7797,1.80347 z"
       id="path4039" />
    <path
       style="fill:#000000;stroke-width:0.80549"
       d="m 68.40727,223.14412 c -28.30745,-14.95371 -39.837517,-23.6151 -44.592906,-33.49821 -2.369215,-4.92395 -2.453329,-6.30253 -0.453328,-7.42978 2.229104,-1.25639 15.31296,-1.04229 23.041262,0.37706 12.257702,2.25118 18.868691,4.95529 29.3829,12.01854 1.565198,1.05147 0.730017,0.0764 1.757351,-1.38665 1.109517,-1.58013 2.398503,-0.5857 5.907837,3.01451 1.994246,2.04588 5.247873,6.21483 7.230283,9.26432 3.310416,5.09232 3.634811,6.04382 3.977424,11.66619 0.218912,3.59242 -0.0095,7.34242 -0.552877,9.07633 -1.12442,3.58813 -3.705374,7.19105 -5.151308,7.19105 -0.583678,0 -9.829667,-4.63201 -20.546638,-10.29336 z"
       id="path4359"
       sodipodi:nodetypes="ssssssssssss" />
    <path
       style="fill:#000000;stroke-width:1.95503"
       d="m 540.05854,518.79644 c 0.95765,-10.56112 3.88724,-9.24909 -0.37697,-11.99862 -7.10819,-4.58327 -25.11789,-6.66769 -56.56093,-10.80735 C 435.10137,489.66846 416.53168,484.02111 333.07,451.01305 266.45645,424.66822 225.81697,409.75799 160.31228,388.19411 104.8323,369.93033 67.348662,355.10422 64.286814,351.41492 c -1.547503,-1.86463 4.528879,-14.62953 8.601276,-21.01526 10.117543,-15.86483 18.689275,-26.83219 24.405883,-30.12275 l 19.522527,-11.23746 28.37763,22.23651 c 55.01849,43.11209 100.11541,67.38878 142.02407,80.93694 31.1225,10.06123 47.153,15.41039 112.58498,15.41039 76.05529,0 81.97347,-8.3072 147.45753,-35.60556 15.23415,-6.35066 32.75661,-8.17882 34.62017,-9.08518 20.3263,-9.88591 12.66123,10.92759 13.73108,32.4984 0.56689,11.42997 3.04584,14.20306 4.32726,15.48449 1.72496,1.72496 -0.0666,3.03325 10.06616,-5.41174 25.52234,-21.2711 26.35662,-33.51769 44.47617,-88.28114 15.45872,-46.72154 34.05425,-77.2136 47.00204,-90.34693 10.41381,-10.563 18.32576,-1.4734 28.08713,-0.76016 24.61408,1.79847 2.59467,21.65451 0.74067,39.58782 -4.37852,42.35242 -13.26654,99.65566 -17.1756,152.67266 -2.18025,29.56979 -5.68017,61.19941 -6.7921,65.18274 -3.02212,10.82622 -12.04044,14.72764 -33.64886,18.44252 -23.33149,4.01113 -72.46716,17.47413 -103.27097,26.8183 -12.62227,3.8289 -31.60505,9.714 -28.09044,3.15709 0.4729,-0.88225 -1.85847,-6.74417 -1.27488,-13.18016 z"
       id="path5708"
       transform="scale(0.26458333)"
       sodipodi:nodetypes="sssssssscssssssssssssssssss" />
  </g>
</svg>
